{"glyphs":{":":{"x_min":0,"x_max":208,"ha":208,"o":"m 50 339 q 50 371 71 394 q 92 416 122 416 q 152 416 173 395 q 195 374 195 344 q 195 308 174 285 q 153 262 120 262 q 91 262 70 284 q 50 307 50 339 z m 11 70 q 11 102 32 125 q 54 147 84 147 q 113 147 135 126 q 156 104 156 75 q 156 39 135 15 q 114 -8 81 -8 q 52 -8 32 15 q 11 38 11 70 z"},"$":{"x_min":0,"x_max":531,"ha":531,"o":"m 352 544 l 329 378 q 403 334 437 292 q 471 250 471 188 q 471 116 418 60 q 365 4 273 -6 l 260 -85 l 195 -85 l 207 -4 q 120 11 31 106 l 104 180 q 141 141 163 126 q 185 111 222 104 l 249 284 q 110 374 110 472 q 110 526 155 580 q 199 634 303 648 l 313 713 l 378 713 l 368 650 q 440 639 508 572 l 434 488 q 430 491 422 499 q 380 538 352 544 z m 269 422 l 287 547 q 263 543 249 526 q 234 508 234 485 q 234 451 269 422 z m 310 243 l 290 107 q 355 122 355 175 q 355 209 310 243 z"},"?":{"x_min":0,"x_max":479,"ha":479,"o":"m 261 296 l 249 213 l 141 213 l 167 393 q 188 389 203 389 q 251 389 282 414 q 314 439 314 477 q 314 506 293 525 q 272 545 242 545 q 186 545 157 478 l 50 478 q 61 562 116 605 q 172 648 251 648 q 333 648 382 601 q 431 553 431 474 q 431 408 386 359 q 341 310 261 296 z m 103 66 q 103 100 125 123 q 146 146 178 146 q 206 146 227 123 q 248 100 248 69 q 248 38 226 14 q 204 -9 173 -9 q 145 -9 124 14 q 103 36 103 66 z"},"<":{"x_min":0,"x_max":667,"ha":667,"o":"m 605 56 l 62 283 l 62 377 l 605 604 l 605 491 l 205 330 l 605 170 z"},"'":{"x_min":0,"x_max":238,"ha":238,"o":"m 87 461 l 89 595 l 116 716 l 265 716 l 238 595 l 188 461 z"},"=":{"x_min":0,"x_max":667,"ha":667,"o":"m 62 500 l 605 500 l 605 395 l 62 395 z m 62 267 l 605 267 l 605 162 l 62 162 z"},"a":{"x_min":0,"x_max":479,"ha":479,"o":"m 347 360 l 355 413 l 475 413 l 414 0 l 295 0 l 301 43 q 239 -8 174 -8 q 105 -8 60 45 q 15 99 15 180 q 15 281 72 352 q 129 422 210 422 q 282 422 347 360 z m 136 191 q 136 149 159 124 q 181 98 219 98 q 264 98 295 133 q 326 168 326 220 q 326 260 300 288 q 274 315 236 315 q 193 315 165 280 q 136 245 136 191 z"},"L":{"x_min":0,"x_max":427,"ha":427,"o":"m 104 641 l 236 641 l 159 114 l 371 114 l 355 0 l 10 0 z"},"3":{"x_min":0,"x_max":531,"ha":531,"o":"m 204 450 l 97 450 q 104 540 165 595 q 227 650 311 650 q 391 650 442 604 q 492 558 492 485 q 492 377 378 317 q 419 288 438 259 q 456 229 456 181 q 456 104 393 48 q 329 -9 243 -9 q 176 -9 116 36 q 56 80 35 183 l 144 183 q 171 114 237 114 q 269 114 295 139 q 321 164 321 195 q 321 232 293 252 q 266 273 217 273 l 231 366 q 294 370 327 396 q 361 422 361 463 q 361 494 341 514 q 322 535 292 535 q 222 535 204 450 z"},";":{"x_min":0,"x_max":208,"ha":208,"o":"m 139 336 q 139 367 160 390 q 182 414 209 414 q 243 414 263 392 q 284 370 284 335 q 284 305 263 282 q 241 259 213 259 q 180 259 160 281 q 139 302 139 336 z m 123 197 l 219 138 l 54 -117 l -22 -71 z"},"J":{"x_min":0,"x_max":427,"ha":427,"o":"m 275 641 l 407 641 l 347 240 q 333 143 317 99 q 300 55 257 23 q 214 -8 159 -8 q 44 -8 -23 101 l 55 163 q 86 108 133 108 q 171 108 188 138 q 204 167 214 235 z"},"V":{"x_min":0,"x_max":635,"ha":635,"o":"m 66 641 l 188 641 l 287 189 l 519 641 l 652 641 l 323 0 l 207 0 z"},"\"":{"x_min":0,"x_max":474,"ha":474,"o":"m 92 461 l 95 595 l 121 716 l 271 716 l 244 595 l 194 461 z m 313 461 l 315 595 l 341 716 l 491 716 l 465 595 l 414 461 z"},"7":{"x_min":0,"x_max":531,"ha":531,"o":"m 79 639 l 540 639 l 139 -54 l 36 7 l 337 527 l 62 527 z"},"S":{"x_min":0,"x_max":427,"ha":427,"o":"m 434 573 l 363 480 q 326 506 302 519 q 278 532 254 532 q 217 532 194 511 q 171 490 171 457 q 171 428 196 407 q 221 385 282 359 q 331 328 349 312 q 367 295 383 263 q 399 230 399 192 q 399 109 337 51 q 274 -8 186 -8 q 80 -8 -18 75 l 57 168 q 83 150 115 129 q 148 108 180 108 q 215 108 240 131 q 265 154 265 187 q 265 217 240 239 q 216 262 167 282 q 117 303 96 318 q 76 334 55 368 q 34 402 34 452 q 34 538 96 594 q 159 650 254 650 q 350 650 434 573 z"},"}":{"x_min":0,"x_max":389,"ha":389,"o":"m 358 309 l 358 192 q 311 189 290 173 q 269 156 260 123 q 251 89 251 17 l 251 0 q 251 -101 237 -133 q 223 -165 206 -178 q 189 -192 160 -205 q 132 -218 50 -218 l 24 -218 l 24 -101 l 31 -101 q 87 -101 106 -89 q 124 -77 124 -31 q 124 107 142 163 q 160 220 215 251 q 161 284 143 332 q 125 379 124 532 q 124 579 106 591 q 88 603 30 603 l 24 603 l 24 720 l 50 720 q 120 720 154 709 q 188 698 210 675 q 232 651 242 616 q 251 581 251 502 l 251 485 q 251 367 280 338 q 308 310 358 309 z"},"Z":{"x_min":0,"x_max":531,"ha":531,"o":"m 86 641 l 546 641 l 207 115 l 480 115 l 462 0 l -10 0 l 332 529 l 70 529 z"},"x":{"x_min":0,"x_max":479,"ha":479,"o":"m 43 413 l 169 413 l 242 297 l 341 413 l 475 413 l 299 207 l 429 0 l 304 0 l 226 122 l 122 0 l -11 0 l 170 212 z"},")":{"x_min":0,"x_max":313,"ha":313,"o":"m 55 -189 l -23 -130 q 89 11 128 126 q 168 241 168 368 q 168 523 114 653 l 204 693 q 267 550 267 357 q 267 220 221 88 q 175 -43 55 -189 z"},"&":{"x_min":0,"x_max":635,"ha":635,"o":"m 370 327 l 432 241 l 507 316 l 584 223 l 504 145 l 616 1 l 465 1 l 412 70 q 303 -9 216 -9 q 135 -9 84 39 q 33 86 33 161 q 33 303 202 372 q 164 440 164 488 q 164 555 212 602 q 259 649 328 649 q 402 649 451 607 q 499 564 499 500 q 499 402 370 327 z m 307 425 q 343 446 361 463 q 378 479 378 503 q 378 520 365 532 q 351 544 333 544 q 311 544 296 529 q 281 513 281 490 q 281 464 307 425 z m 340 167 l 260 277 q 162 225 162 176 q 162 151 180 135 q 198 119 225 119 q 268 119 340 167 z"},"_":{"x_min":0,"x_max":500,"ha":500,"o":"m -7 -124 l -7 -74 l 507 -74 l 507 -124 z"},"v":{"x_min":0,"x_max":479,"ha":479,"o":"m 33 413 l 146 413 l 219 179 l 347 413 l 471 413 l 244 0 l 165 0 z"},"O":{"x_min":0,"x_max":740,"ha":740,"o":"m 394 651 q 541 651 620 567 q 699 484 699 335 q 699 181 600 86 q 501 -9 342 -9 q 201 -8 119 76 q 38 161 38 307 q 38 455 138 553 q 237 651 394 651 z m 567 333 q 567 424 516 480 q 465 536 382 536 q 296 536 234 469 q 171 402 171 309 q 171 220 222 163 q 274 106 354 106 q 441 106 504 173 q 567 240 567 333 z"},"(":{"x_min":0,"x_max":313,"ha":313,"o":"m 201 -148 l 110 -190 q 44 -38 44 147 q 44 443 252 693 l 331 634 q 220 490 182 379 q 145 268 145 135 q 145 48 159 -16 q 173 -81 201 -148 z"},"C":{"x_min":0,"x_max":583,"ha":583,"o":"m 575 597 l 558 480 q 494 533 409 533 q 313 533 242 463 q 170 393 170 300 q 170 217 221 165 q 273 113 355 113 q 430 113 517 160 l 498 30 q 419 -11 337 -11 q 194 -11 114 79 q 33 168 33 292 q 33 456 141 553 q 249 651 378 651 q 496 651 575 597 z"},"W":{"x_min":0,"x_max":792,"ha":792,"o":"m 64 641 l 185 641 l 245 254 l 398 641 l 471 641 l 532 251 l 684 641 l 812 641 l 560 0 l 462 0 l 406 366 l 262 0 l 162 0 z"},"A":{"x_min":0,"x_max":635,"ha":635,"o":"m 326 641 l 418 641 l 581 0 l 457 0 l 425 129 l 187 129 l 118 0 l -18 0 z m 349 430 l 247 241 l 397 241 z"},"f":{"x_min":0,"x_max":260,"ha":260,"o":"m 320 681 l 305 566 q 290 572 277 572 q 248 572 238 544 q 229 517 216 413 l 281 413 l 264 294 l 197 294 l 155 0 l 34 0 l 77 294 l 45 294 l 64 413 l 96 413 l 103 472 q 114 561 133 600 q 152 639 188 665 q 224 690 268 690 q 287 690 320 681 z"},"Q":{"x_min":0,"x_max":740,"ha":740,"o":"m 563 56 l 638 -60 l 496 -60 l 453 4 l 450 4 q 385 -9 342 -9 q 202 -9 120 77 q 37 164 37 311 q 37 450 134 550 q 230 651 394 651 q 521 651 609 573 q 697 496 697 336 q 697 155 563 56 z m 385 108 l 290 253 l 433 253 l 492 163 q 537 208 551 249 q 566 289 566 337 q 566 424 514 480 q 462 535 381 535 q 295 535 233 469 q 171 402 171 309 q 171 241 200 193 q 229 144 267 126 q 305 108 372 108 z"},"w":{"x_min":0,"x_max":740,"ha":740,"o":"m 44 413 l 154 413 l 214 187 l 348 413 l 440 413 l 499 187 l 632 413 l 748 413 l 506 0 l 439 0 l 371 254 l 222 0 l 152 0 z"},"-":{"x_min":0,"x_max":313,"ha":313,"o":"m 32 259 l 298 259 l 282 152 l 16 152 z"},"E":{"x_min":0,"x_max":427,"ha":427,"o":"m 105 641 l 452 641 l 435 528 l 220 528 l 198 386 l 403 386 l 385 272 l 181 272 l 158 114 l 366 114 l 349 0 l 8 0 z"},"s":{"x_min":0,"x_max":313,"ha":313,"o":"m 287 362 l 226 300 q 191 332 165 332 q 152 332 139 322 q 126 312 126 298 q 126 278 139 264 q 153 250 193 230 q 233 210 253 186 q 272 161 272 123 q 272 69 228 30 q 184 -10 124 -10 q 40 -10 -10 73 l 57 125 q 86 81 121 81 q 140 81 153 92 q 166 102 166 117 q 166 133 152 146 q 138 159 99 179 q 23 220 23 291 q 23 348 64 385 q 105 422 167 422 q 233 422 287 362 z"},">":{"x_min":0,"x_max":667,"ha":667,"o":"m 62 604 l 605 378 l 605 283 l 62 56 l 62 170 l 462 330 l 62 491 z"},"l":{"x_min":0,"x_max":208,"ha":208,"o":"m 115 689 l 234 689 l 132 0 l 12 0 z"},"8":{"x_min":0,"x_max":531,"ha":531,"o":"m 371 328 q 418 305 440 271 q 462 238 462 186 q 462 97 394 44 q 325 -9 249 -9 q 158 -9 101 42 q 45 94 45 176 q 45 229 84 273 q 123 316 191 334 q 144 365 123 395 q 102 426 102 473 q 102 551 156 601 q 210 651 295 651 q 374 651 431 602 q 489 554 489 488 q 489 380 371 328 z m 372 469 q 372 501 351 522 q 331 544 300 544 q 268 544 245 521 q 222 497 222 464 q 222 434 243 414 q 265 393 296 393 q 326 393 349 416 q 372 438 372 469 z m 343 191 q 343 224 317 247 q 292 271 257 271 q 221 271 195 248 q 169 224 169 191 q 169 155 194 129 q 219 103 253 103 q 291 103 317 129 q 343 154 343 191 z"},"\\":{"x_min":0,"x_max":365,"ha":365,"o":"m 29 687 l 101 687 l 350 -183 l 281 -183 z"},"e":{"x_min":0,"x_max":479,"ha":479,"o":"m 451 178 l 167 178 q 178 89 256 89 q 309 89 347 139 l 432 95 q 349 -8 240 -8 q 152 -8 95 48 q 39 104 39 192 q 39 287 103 354 q 167 422 257 422 q 347 422 400 361 q 453 301 451 178 z m 173 261 l 342 261 q 333 328 261 328 q 199 328 173 261 z"},"b":{"x_min":0,"x_max":479,"ha":479,"o":"m 109 689 l 230 689 l 183 377 q 247 421 308 421 q 375 421 420 367 q 465 313 465 232 q 465 133 406 62 q 347 -9 266 -9 q 202 -9 136 52 l 127 0 l 8 0 z m 154 194 q 154 153 179 126 q 205 99 243 99 q 284 99 314 133 q 344 167 344 213 q 344 263 322 289 q 299 316 257 316 q 217 316 185 279 q 154 242 154 194 z"},"%":{"x_min":0,"x_max":958,"ha":958,"o":"m 444 531 q 444 413 388 339 q 332 265 244 265 q 179 265 138 312 q 97 358 97 434 q 97 551 153 625 q 209 699 296 699 q 364 699 404 654 q 444 608 444 531 z m 184 421 q 184 379 202 354 q 219 330 249 330 q 279 330 305 353 q 331 376 344 436 q 357 497 357 548 q 357 589 339 612 q 321 635 288 635 q 259 635 234 610 q 209 585 197 522 q 184 459 184 421 z m 776 699 l 266 -77 l 186 -77 l 696 699 z m 866 186 q 866 71 811 -3 q 755 -77 670 -77 q 600 -77 560 -30 q 519 18 519 101 q 519 211 576 285 q 633 359 717 359 q 785 359 826 312 q 866 266 866 186 z m 675 -11 q 708 -11 733 17 q 758 46 769 107 q 780 167 780 207 q 780 248 762 271 q 744 295 712 295 q 684 295 659 271 q 634 247 621 190 q 607 133 607 90 q 607 41 624 15 q 642 -11 674 -11 z"},"m":{"x_min":0,"x_max":688,"ha":688,"o":"m 193 413 l 186 357 q 246 422 314 422 q 355 422 379 399 q 402 377 415 329 q 481 422 560 422 q 667 422 667 280 q 667 252 664 230 l 633 0 l 513 0 l 546 236 q 549 257 549 273 q 549 330 502 330 q 471 330 448 303 q 424 276 418 235 l 382 0 l 263 0 l 298 242 q 300 260 300 269 q 300 330 254 330 q 224 330 199 304 q 174 278 168 238 l 134 0 l 14 0 l 73 413 z"},"#":{"x_min":0,"x_max":668,"ha":668,"o":"m 38 497 l 189 497 l 230 684 l 322 684 l 281 497 l 454 497 l 494 684 l 587 684 l 547 497 l 629 497 l 629 404 l 529 404 l 498 256 l 629 256 l 629 164 l 481 164 l 440 -21 l 348 -21 l 388 164 l 213 164 l 175 -21 l 82 -21 l 121 164 l 38 164 l 38 256 l 140 256 l 171 404 l 38 404 z m 263 404 l 233 257 l 406 257 l 437 404 z"},",":{"x_min":0,"x_max":208,"ha":208,"o":"m 96 199 l 198 152 l 67 -116 l -13 -79 z"},"n":{"x_min":0,"x_max":424,"ha":424,"o":"m 194 413 l 186 369 q 223 397 246 409 q 270 422 298 422 q 347 422 377 385 q 407 347 407 285 q 407 265 405 252 l 367 0 l 248 0 l 284 239 q 286 251 286 273 q 286 329 241 329 q 214 329 194 302 q 173 276 167 233 l 132 0 l 11 0 l 73 413 z"},"h":{"x_min":0,"x_max":424,"ha":424,"o":"m 114 689 l 233 689 l 186 368 q 219 396 245 409 q 270 422 301 422 q 349 422 378 384 q 407 346 407 281 q 407 265 404 245 l 367 0 l 248 0 l 277 200 q 284 246 284 282 q 284 304 272 316 q 260 329 240 329 q 180 329 164 218 l 132 0 l 11 0 z"},"z":{"x_min":0,"x_max":427,"ha":427,"o":"m 70 413 l 427 413 l 200 99 l 377 99 l 361 0 l -4 0 l 225 316 l 55 316 z"},"B":{"x_min":0,"x_max":531,"ha":531,"o":"m 105 641 l 257 641 q 477 641 477 477 q 477 387 386 328 q 485 282 485 182 q 485 96 413 48 q 341 0 210 0 l 8 0 z m 221 535 l 198 382 l 248 382 q 295 382 326 403 q 357 425 357 457 q 357 493 331 514 q 304 535 259 535 z m 183 281 l 157 106 l 223 106 q 282 106 319 130 q 355 153 355 191 q 355 229 321 255 q 287 281 238 281 z"},"K":{"x_min":0,"x_max":583,"ha":583,"o":"m 102 641 l 234 641 l 198 390 l 449 641 l 619 641 l 298 319 l 507 0 l 364 0 l 181 279 l 140 0 l 6 0 z"},"R":{"x_min":0,"x_max":531,"ha":531,"o":"m 115 641 l 237 641 q 358 641 422 592 q 486 542 486 448 q 486 375 451 318 q 417 262 335 243 l 460 0 l 326 0 l 207 232 l 188 232 l 153 0 l 20 0 z m 231 528 l 204 347 l 231 346 q 281 346 316 374 q 351 402 351 442 q 351 487 322 507 q 292 527 231 528 z"},"T":{"x_min":0,"x_max":427,"ha":427,"o":"m 69 641 l 462 641 l 445 528 l 314 528 l 237 0 l 106 0 l 182 528 l 53 528 z"},"P":{"x_min":0,"x_max":479,"ha":479,"o":"m 90 641 l 223 641 q 464 641 464 438 q 464 385 440 339 q 416 293 379 269 q 343 246 304 240 q 265 234 164 233 l 130 0 l -3 0 z m 208 528 l 180 347 l 216 347 q 263 347 295 375 q 327 404 327 445 q 327 480 301 504 q 274 528 236 528 z"},"|":{"x_min":0,"x_max":588,"ha":588,"o":"m 241 696 l 347 696 l 347 -135 l 241 -135 z"},"t":{"x_min":0,"x_max":281,"ha":281,"o":"m 123 561 l 242 561 l 221 413 l 276 413 l 259 294 l 205 294 l 160 0 l 41 0 l 83 294 l 38 294 l 55 413 l 101 413 z"},"M":{"x_min":0,"x_max":740,"ha":740,"o":"m 183 641 l 305 641 l 371 281 l 552 641 l 675 641 l 675 0 l 556 0 l 556 384 l 361 0 l 299 0 l 227 399 l 92 0 l -34 0 z"},"g":{"x_min":0,"x_max":479,"ha":479,"o":"m 342 378 l 349 413 l 467 413 l 413 45 q 402 -30 390 -64 q 377 -98 352 -125 q 327 -152 285 -169 q 243 -186 198 -186 q 134 -186 81 -150 q 27 -114 17 -43 l 133 -43 q 154 -92 198 -92 q 236 -92 261 -61 q 286 -30 290 26 q 252 10 233 6 q 215 1 191 1 q 114 1 66 57 q 17 112 17 201 q 17 291 77 356 q 136 421 217 421 q 280 421 342 378 z m 139 212 q 139 163 165 132 q 191 101 232 101 q 273 101 302 134 q 331 167 331 216 q 331 258 304 285 q 277 313 236 313 q 195 313 167 284 q 139 255 139 212 z"},"j":{"x_min":0,"x_max":208,"ha":208,"o":"m 230 579 q 230 547 208 525 q 186 503 153 503 q 122 503 100 526 q 78 549 78 581 q 78 612 100 635 q 123 657 153 657 q 185 657 208 634 q 230 611 230 579 z m 72 413 l 192 413 l 103 -185 l -15 -185 z"},"i":{"x_min":0,"x_max":208,"ha":208,"o":"m 157 504 q 125 504 103 527 q 80 551 80 583 q 80 614 103 636 q 125 658 157 658 q 189 658 211 636 q 234 614 234 583 q 234 549 212 527 q 190 504 159 504 z m 73 413 l 193 413 l 131 0 l 12 0 z"},"y":{"x_min":0,"x_max":458,"ha":458,"o":"m 40 413 l 151 413 l 222 193 l 352 413 l 477 413 l 121 -185 l -1 -185 l 149 69 z"},"@":{"x_min":0,"x_max":975,"ha":975,"o":"m 866 9 l 970 9 q 917 -98 806 -154 q 695 -210 539 -210 q 299 -210 163 -92 q 28 26 28 235 q 28 376 96 497 q 165 617 278 672 q 392 728 528 728 q 714 728 829 624 q 944 519 944 352 q 944 209 849 104 q 753 0 624 0 q 545 0 532 56 q 475 0 398 0 q 315 0 263 58 q 212 116 212 210 q 212 327 286 428 q 360 529 473 529 q 563 529 605 463 l 617 517 l 745 517 l 672 167 q 665 134 665 123 q 665 100 684 100 q 709 100 751 134 q 794 167 825 228 q 856 289 856 360 q 856 484 765 562 q 674 639 526 639 q 397 639 304 585 q 210 532 164 433 q 117 333 117 229 q 117 67 228 -27 q 338 -121 530 -121 q 764 -121 866 9 z m 338 203 q 338 151 362 120 q 386 89 425 89 q 495 89 536 167 q 578 246 578 327 q 578 379 553 410 q 528 441 487 441 q 425 441 382 375 q 338 310 338 203 z"},".":{"x_min":0,"x_max":208,"ha":208,"o":"m 29 67 q 29 102 49 125 q 70 147 101 147 q 131 147 152 126 q 174 104 174 75 q 174 39 153 15 q 132 -9 101 -9 q 72 -9 50 14 q 29 36 29 67 z"},"p":{"x_min":0,"x_max":479,"ha":479,"o":"m 141 47 l 106 -185 l -13 -185 l 74 413 l 196 413 l 191 384 q 226 404 250 413 q 274 422 308 422 q 376 422 420 367 q 465 312 465 227 q 465 129 406 60 q 348 -9 266 -9 q 205 -9 141 47 z m 243 100 q 287 100 315 134 q 344 168 344 220 q 344 267 320 292 q 295 317 250 317 q 213 317 183 279 q 154 241 154 193 q 154 153 179 127 q 204 100 240 100 z"},"X":{"x_min":0,"x_max":583,"ha":583,"o":"m 65 641 l 200 641 l 308 434 l 464 641 l 613 641 l 369 317 l 533 0 l 400 0 l 290 212 l 127 0 l -21 0 l 228 329 z"},"*":{"x_min":0,"x_max":427,"ha":427,"o":"m 199 422 l 188 428 q 157 403 123 363 q 117 354 103 345 q 89 336 73 336 q 58 336 47 349 q 35 361 35 377 q 35 399 55 412 q 75 424 119 432 q 163 439 177 449 l 175 465 q 149 476 111 484 q 73 491 62 496 q 51 500 43 512 q 35 524 35 537 q 35 552 47 564 q 60 576 75 576 q 90 576 104 566 q 117 557 140 529 q 163 501 187 486 l 199 493 q 199 514 185 555 q 171 595 171 611 q 171 627 183 640 q 194 653 209 653 q 228 653 240 642 q 252 630 252 612 q 252 594 239 555 q 225 516 225 493 l 239 485 q 277 516 300 545 q 324 575 351 575 q 367 575 379 562 q 391 549 391 533 q 391 513 375 502 q 360 492 324 485 q 288 479 249 464 l 249 447 q 273 437 316 428 q 358 420 374 409 q 390 399 390 377 q 390 362 378 349 q 366 337 351 337 q 323 337 294 372 q 266 406 239 430 l 224 422 q 224 402 238 362 q 252 322 252 302 q 252 283 240 271 q 228 259 210 259 q 194 259 182 272 q 170 285 170 303 q 170 314 185 356 q 199 398 199 422 z"},"Y":{"x_min":0,"x_max":583,"ha":583,"o":"m 80 641 l 210 641 l 311 418 l 472 641 l 619 641 l 368 293 l 325 0 l 195 0 l 237 295 z"},"c":{"x_min":0,"x_max":427,"ha":427,"o":"m 408 384 l 393 285 l 388 287 q 358 305 336 312 q 314 319 282 319 q 233 319 198 281 q 164 242 164 187 q 164 142 192 116 q 220 91 270 91 q 306 91 367 114 l 352 8 q 284 -9 243 -9 q 157 -9 101 48 q 45 105 45 193 q 45 273 105 348 q 165 422 275 422 q 343 422 408 384 z"},"!":{"x_min":0,"x_max":208,"ha":208,"o":"m 110 641 l 229 641 l 165 203 l 45 203 z m 14 64 q 14 100 34 123 q 55 146 86 146 q 118 146 139 124 q 159 103 159 68 q 159 38 137 15 q 115 -8 85 -8 q 55 -8 35 13 q 14 34 14 64 z"},"/":{"x_min":0,"x_max":365,"ha":365,"o":"m 278 689 l 351 689 l 102 -184 l 29 -184 z"},"[":{"x_min":0,"x_max":313,"ha":313,"o":"m 118 682 l 317 682 l 304 601 l 203 601 l 100 -101 l 201 -101 l 189 -180 l -5 -180 z"},"6":{"x_min":0,"x_max":531,"ha":531,"o":"m 296 639 l 465 639 l 282 416 l 312 416 q 392 416 446 366 q 501 317 501 245 q 501 144 425 67 q 349 -9 248 -9 q 156 -9 91 54 q 26 118 26 208 q 26 277 69 345 q 111 413 175 491 z m 151 210 q 151 166 179 135 q 208 104 249 104 q 296 104 330 139 q 364 174 364 223 q 364 269 334 299 q 304 330 259 330 q 214 330 183 295 q 151 260 151 210 z"},"r":{"x_min":0,"x_max":313,"ha":313,"o":"m 332 410 l 303 299 q 286 307 259 307 q 176 307 160 197 l 131 0 l 11 0 l 73 413 l 193 413 l 189 384 q 238 423 286 423 q 309 423 332 410 z"},"2":{"x_min":0,"x_max":531,"ha":531,"o":"m 282 113 l 462 113 l 445 0 l 19 0 l 266 273 q 331 345 357 384 q 384 423 384 458 q 384 492 359 517 q 334 542 300 542 q 216 542 202 419 l 89 419 q 96 524 163 587 q 229 649 314 649 q 399 649 456 598 q 513 548 513 472 q 513 366 406 249 z"},"{":{"x_min":0,"x_max":389,"ha":389,"o":"m 31 192 l 31 309 q 78 312 99 329 q 120 346 129 379 q 138 413 138 485 l 138 502 q 138 583 148 619 q 158 654 180 677 q 203 699 238 710 q 272 720 339 720 l 365 720 l 365 603 l 359 603 q 301 603 283 591 q 265 579 265 532 q 263 376 245 330 q 228 283 174 251 q 233 217 249 156 q 265 96 265 -31 q 265 -77 283 -89 q 302 -101 358 -101 l 365 -101 l 365 -218 l 339 -218 q 268 -218 234 -207 q 199 -196 177 -171 q 154 -146 146 -112 q 138 -78 138 0 l 138 17 q 138 132 110 163 q 82 193 31 192 z"},"9":{"x_min":0,"x_max":531,"ha":531,"o":"m 87 30 l 243 224 l 223 224 q 136 224 82 273 q 28 321 28 399 q 28 500 104 575 q 179 651 281 651 q 372 651 435 588 q 499 525 499 437 q 499 376 474 324 q 450 271 300 85 l 189 -53 z m 163 413 q 163 372 194 341 q 225 310 266 310 q 312 310 344 346 q 376 381 376 432 q 376 475 347 506 q 318 537 277 537 q 231 537 197 500 q 163 463 163 413 z"}," ":{"x_min":0,"x_max":266,"ha":266,"o":""},"I":{"x_min":0,"x_max":208,"ha":208,"o":"m 82 641 l 214 641 l 119 0 l -13 0 z"},"H":{"x_min":0,"x_max":583,"ha":583,"o":"m 87 641 l 220 641 l 186 401 l 427 401 l 462 641 l 595 641 l 501 0 l 368 0 l 408 270 l 166 270 l 126 0 l -7 0 z"},"4":{"x_min":0,"x_max":531,"ha":531,"o":"m 391 637 l 492 637 l 435 257 l 505 257 l 488 146 l 419 146 l 397 0 l 266 0 l 287 146 l 19 146 l 36 257 z m 150 249 l 297 249 l 324 433 z"},"~":{"x_min":0,"x_max":656,"ha":656,"o":"m 599 437 l 599 328 q 517 260 451 260 q 418 260 389 270 q 360 280 299 309 q 237 339 205 339 q 135 339 57 267 l 57 376 q 135 443 212 443 q 241 443 270 434 q 298 424 343 403 q 388 381 411 373 q 434 365 456 365 q 519 365 599 437 z"},"D":{"x_min":0,"x_max":583,"ha":583,"o":"m 102 641 l 267 641 q 331 641 403 613 q 475 585 519 516 q 564 446 564 352 q 564 268 532 197 q 501 125 446 79 q 392 33 338 17 q 285 0 213 0 l 8 0 z m 216 510 l 161 132 l 210 132 q 327 132 376 194 q 426 256 426 354 q 426 426 381 468 q 336 510 258 510 z"},"^":{"x_min":0,"x_max":584,"ha":584,"o":"m 56 338 l 240 728 l 349 728 l 528 338 l 389 338 l 292 577 l 196 338 z"},"0":{"x_min":0,"x_max":531,"ha":531,"o":"m 306 649 q 401 649 455 575 q 509 501 509 372 q 509 268 469 171 q 428 73 358 32 q 289 -9 222 -9 q 178 -9 127 19 q 75 47 47 116 q 18 185 18 277 q 18 384 61 478 q 103 571 169 610 q 235 649 306 649 z m 135 262 q 135 188 163 145 q 191 101 237 101 q 274 101 314 135 q 354 169 374 248 q 393 327 393 396 q 393 463 366 502 q 338 541 293 541 q 226 541 180 462 q 135 383 135 262 z"},"F":{"x_min":0,"x_max":427,"ha":427,"o":"m 105 641 l 453 641 l 436 528 l 221 528 l 200 385 l 403 385 l 386 272 l 183 272 l 142 0 l 10 0 z"},"`":{"x_min":0,"x_max":333,"ha":333,"o":"m 134 649 l 269 649 l 331 503 l 236 503 z"},"k":{"x_min":0,"x_max":427,"ha":427,"o":"m 108 689 l 227 689 l 165 263 l 284 413 l 421 413 l 257 204 l 379 0 l 255 0 l 150 172 l 126 0 l 6 0 z"},"u":{"x_min":0,"x_max":478,"ha":478,"o":"m 75 413 l 196 413 l 163 194 l 162 180 q 162 148 180 130 q 198 111 228 111 q 257 111 278 134 q 300 156 305 194 l 336 413 l 455 413 l 431 244 q 417 146 400 99 q 383 52 341 22 q 298 -8 230 -8 q 142 -8 94 40 q 47 88 47 179 q 47 215 51 243 z"},"]":{"x_min":0,"x_max":313,"ha":313,"o":"m 141 683 l 340 683 l 222 -180 l 14 -180 l 25 -101 l 137 -101 l 235 602 l 130 602 z"},"U":{"x_min":0,"x_max":582,"ha":582,"o":"m 85 641 l 218 641 l 160 240 q 158 222 158 214 q 158 111 269 111 q 338 111 374 154 q 409 196 423 292 l 474 641 l 607 641 l 559 308 q 547 223 530 173 q 513 122 481 82 q 449 42 391 17 q 334 -8 269 -8 q 151 -8 89 47 q 27 102 27 206 q 27 244 33 285 z"},"o":{"x_min":0,"x_max":479,"ha":479,"o":"m 461 210 q 461 120 393 56 q 325 -8 229 -8 q 139 -8 76 52 q 13 112 13 197 q 13 287 81 354 q 148 422 238 422 q 336 422 399 363 q 461 304 461 210 z m 139 202 q 139 159 167 131 q 195 102 237 102 q 277 102 307 133 q 336 165 336 207 q 336 253 308 281 q 281 310 237 310 q 196 310 168 279 q 139 247 139 202 z"},"N":{"x_min":0,"x_max":635,"ha":635,"o":"m 103 641 l 239 641 l 444 212 l 507 641 l 638 641 l 544 0 l 421 0 l 206 445 l 141 0 l 9 0 z"},"+":{"x_min":0,"x_max":667,"ha":667,"o":"m 61 383 l 281 383 l 281 602 l 385 602 l 385 383 l 606 383 l 606 278 l 385 278 l 385 59 l 281 59 l 281 278 l 61 278 z"},"G":{"x_min":0,"x_max":688,"ha":688,"o":"m 646 501 l 551 429 q 515 480 469 504 q 423 528 377 528 q 283 528 224 460 q 165 392 165 282 q 165 211 216 158 q 268 106 337 106 q 388 106 433 136 q 479 166 507 230 l 357 230 l 357 343 l 647 343 q 650 178 555 84 q 459 -9 337 -9 q 198 -9 114 72 q 29 153 29 286 q 29 454 137 552 q 246 650 376 650 q 452 650 526 610 q 600 569 646 501 z"},"q":{"x_min":0,"x_max":479,"ha":479,"o":"m 343 362 l 350 413 l 470 413 l 384 -185 l 264 -185 l 296 36 q 250 8 227 0 q 204 -8 172 -8 q 104 -8 59 45 q 14 99 14 182 q 14 278 74 350 q 133 422 212 422 q 279 422 343 362 z m 135 188 q 135 147 158 122 q 182 96 219 96 q 262 96 294 132 q 327 168 327 216 q 327 255 301 283 q 275 312 239 312 q 196 312 165 276 q 135 240 135 188 z"},"d":{"x_min":0,"x_max":479,"ha":479,"o":"m 396 689 l 516 689 l 415 0 l 295 0 l 300 34 q 230 -9 177 -9 q 110 -9 65 45 q 19 99 19 178 q 19 280 77 351 q 135 422 216 422 q 248 422 274 411 q 300 400 322 382 q 343 364 348 361 z m 139 195 q 139 150 164 122 q 188 94 228 94 q 265 94 298 131 q 330 168 330 214 q 330 257 306 284 q 281 312 244 312 q 200 312 170 278 q 139 244 139 195 z"},"1":{"x_min":0,"x_max":531,"ha":531,"o":"m 186 640 l 397 640 l 288 0 l 157 0 l 246 528 l 167 528 z"},"5":{"x_min":0,"x_max":531,"ha":531,"o":"m 219 641 l 501 641 l 485 528 l 301 528 l 265 420 q 362 417 408 360 q 454 303 454 228 q 454 133 383 63 q 312 -8 216 -8 q 175 -8 125 10 q 75 27 32 70 l 77 162 q 147 99 207 99 q 253 99 288 134 q 322 168 322 214 q 322 259 290 289 q 259 319 210 319 q 168 319 103 289 z"}}}
